<svg width="287" height="424" viewBox="0 0 287 424" fill="none" xmlns="http://www.w3.org/2000/svg">
<path d="M619.5 0.499969H4.5C2.29086 0.499969 0.5 2.29083 0.5 4.49997V419.5C0.5 421.709 2.29086 423.5 4.5 423.5H619.5C621.709 423.5 623.5 421.709 623.5 419.5V4.49997C623.5 2.29083 621.709 0.499969 619.5 0.499969Z" fill="white" stroke="#EAEEF2"/>
<path d="M37.278 393.4C38.26 393.4 39.02 393.163 39.558 392.69C40.095 392.215 40.363 391.563 40.363 390.734C40.363 390.192 40.218 389.726 39.928 389.334C39.6361 388.941 39.2186 388.661 38.745 388.538C39.1427 388.376 39.4892 388.109 39.748 387.766C39.993 387.434 40.116 387.052 40.116 386.621C40.116 385.808 39.863 385.195 39.357 384.78C38.851 384.365 38.097 384.158 37.094 384.158H34.073V393.4H37.278ZM37.132 388.1H35.292V385.16H37.094C37.699 385.16 38.15 385.276 38.446 385.507C38.743 385.737 38.891 386.107 38.891 386.614C38.891 387.071 38.731 387.434 38.411 387.7C38.091 387.966 37.666 388.1 37.132 388.1ZM37.304 392.403H35.292V389.077H37.322C38.533 389.077 39.138 389.634 39.138 390.747C39.138 391.263 38.974 391.668 38.646 391.962C38.318 392.256 37.871 392.403 37.304 392.403ZM44.102 393.527C44.86 393.527 45.512 393.243 46.057 392.677C46.099 393.023 46.154 393.265 46.222 393.4H47.454V393.298C47.293 392.926 47.212 392.425 47.212 391.794V388.633C47.195 387.939 46.962 387.394 46.514 386.998C46.066 386.603 45.446 386.405 44.654 386.405C44.154 386.405 43.697 386.498 43.28 386.685C42.8911 386.85 42.5504 387.111 42.29 387.443C42.046 387.763 41.925 388.093 41.925 388.436H43.105C43.105 388.136 43.247 387.88 43.531 387.668C43.814 387.456 44.166 387.351 44.584 387.351C45.063 387.351 45.424 387.472 45.67 387.716C45.915 387.959 46.038 388.286 46.038 388.696V389.236H44.896C43.91 389.236 43.145 389.434 42.601 389.829C42.057 390.225 41.785 390.781 41.785 391.496C41.785 392.084 42.002 392.57 42.435 392.952C42.87 393.335 43.425 393.527 44.102 393.527ZM44.273 392.505C43.888 392.505 43.573 392.401 43.328 392.194C43.082 391.987 42.959 391.699 42.959 391.331C42.959 390.489 43.679 390.067 45.118 390.067H46.038V391.477C45.8801 391.792 45.63 392.05 45.321 392.219C44.991 392.409 44.641 392.505 44.273 392.505ZM51.808 393.527C52.274 393.527 52.715 393.421 53.132 393.21C53.548 392.998 53.882 392.714 54.132 392.359C54.3713 392.031 54.5122 391.641 54.538 391.235H53.427C53.4116 391.421 53.3574 391.602 53.2678 391.767C53.1783 391.931 53.0554 392.074 52.907 392.188C52.593 392.442 52.227 392.568 51.808 392.568C51.203 392.568 50.738 392.355 50.412 391.928C50.086 391.5 49.922 390.891 49.922 390.099V389.877C49.922 389.065 50.087 388.444 50.415 388.014C50.743 387.584 51.205 387.37 51.802 387.37C52.246 387.37 52.62 387.513 52.922 387.798C53.225 388.084 53.392 388.448 53.427 388.893H54.537C54.504 388.157 54.232 387.558 53.722 387.097C53.212 386.636 52.572 386.405 51.802 386.405C51.175 386.405 50.632 386.549 50.174 386.837C49.714 387.124 49.362 387.528 49.117 388.049C48.871 388.569 48.749 389.164 48.749 389.833V390.029C48.749 391.113 49.025 391.966 49.577 392.591C50.129 393.215 50.873 393.527 51.808 393.527ZM57.038 393.4V390.988L57.775 390.22L60.168 393.4H61.545L58.562 389.401L61.234 386.531H59.806L57.667 388.791L57.039 389.547V383.65H55.864V393.4H57.039H57.038Z" fill="#2E85FF"/>
<path fill-rule="evenodd" clip-rule="evenodd" d="M0 354H624V355H0V354Z" fill="#EAEEF2"/>
<path d="M27 386L24 389L27 392" stroke="#2E85FF"/>
</svg>
